<svg xmlns="http://www.w3.org/2000/svg" xmlns:xlink="http://www.w3.org/1999/xlink" width="498" height="191" contentStyleType="text/css" preserveAspectRatio="none" style="width:498px;height:191px;background:#fff" version="1.1" viewBox="0 0 498 191" zoomAndPan="magnify"><g><rect width="216" height="108.047" x="10" y="46.5" fill="#F1F1F1" rx="5" ry="5" style="stroke:#f1f1f1;stroke-width:1.5"/><text x="15" y="63.033" fill="#000" font-family="sans-serif" font-size="14" font-weight="bold" lengthAdjust="spacing" textLength="30">type</text><text x="133" y="63.033" fill="#000" font-family="sans-serif" font-size="14" font-style="italic" lengthAdjust="spacing" textLength="69">Probe type</text><line style="stroke:#000;stroke-width:1" x1="128" x2="128" y1="46.5" y2="68.109"/><line style="stroke:#000;stroke-width:1" x1="10" x2="226" y1="68.109" y2="68.109"/><text x="15" y="84.643" fill="#000" font-family="sans-serif" font-size="14" font-weight="bold" lengthAdjust="spacing" textLength="51">target?</text><line style="stroke:#000;stroke-width:1" x1="128" x2="128" y1="68.109" y2="89.719"/><line style="stroke:#000;stroke-width:1" x1="10" x2="226" y1="89.719" y2="89.719"/><text x="15" y="106.252" fill="#000" font-family="sans-serif" font-size="14" font-weight="bold" lengthAdjust="spacing" textLength="108">implementation</text><line style="stroke:#000;stroke-width:1" x1="128" x2="128" y1="89.719" y2="111.328"/><line style="stroke:#000;stroke-width:1" x1="10" x2="226" y1="111.328" y2="111.328"/><text x="15" y="127.861" fill="#000" font-family="sans-serif" font-size="14" font-weight="bold" lengthAdjust="spacing" textLength="69">requires?</text><text x="133" y="127.861" fill="#000" font-family="sans-serif" font-size="14" font-style="italic" lengthAdjust="spacing" textLength="88">Requirements</text><line style="stroke:#000;stroke-width:1" x1="128" x2="128" y1="111.328" y2="132.938"/><line style="stroke:#000;stroke-width:1" x1="10" x2="226" y1="132.938" y2="132.938"/><text x="15" y="149.471" fill="#000" font-family="sans-serif" font-size="14" font-weight="bold" lengthAdjust="spacing" textLength="57">runFor?</text><text x="133" y="149.471" fill="#000" font-family="sans-serif" font-size="14" font-style="italic" lengthAdjust="spacing" textLength="88">Requirements</text><line style="stroke:#000;stroke-width:1" x1="128" x2="128" y1="132.938" y2="154.547"/><rect width="216" height="108.047" x="10" y="46.5" fill="none" rx="5" ry="5" style="stroke:#000;stroke-width:1.5"/><rect width="198" height="64.828" x="275.5" y="10" fill="#F1F1F1" rx="5" ry="5" style="stroke:#f1f1f1;stroke-width:1.5"/><text x="280.5" y="26.533" fill="#000" font-family="sans-serif" font-size="14" font-weight="bold" lengthAdjust="spacing" textLength="30">type</text><text x="344.5" y="26.533" fill="#000" font-family="sans-serif" font-size="14" font-weight="bold" lengthAdjust="spacing" textLength="48">Server</text><text x="396.5" y="26.533" fill="#000" font-family="sans-serif" font-size="14" lengthAdjust="spacing" textLength="3">|</text><text x="403.5" y="26.533" fill="#000" font-family="sans-serif" font-size="14" font-weight="bold" lengthAdjust="spacing" textLength="65">Database</text><line style="stroke:#000;stroke-width:1" x1="339.5" x2="339.5" y1="10" y2="31.609"/><line style="stroke:#000;stroke-width:1" x1="275.5" x2="473.5" y1="31.609" y2="31.609"/><text x="280.5" y="48.143" fill="#000" font-family="sans-serif" font-size="14" font-weight="bold" lengthAdjust="spacing" textLength="54">version</text><text x="344.5" y="48.143" fill="#000" font-family="sans-serif" font-size="14" font-style="italic" lengthAdjust="spacing" textLength="97">Version pattern</text><line style="stroke:#000;stroke-width:1" x1="339.5" x2="339.5" y1="31.609" y2="53.219"/><line style="stroke:#000;stroke-width:1" x1="275.5" x2="473.5" y1="53.219" y2="53.219"/><text x="280.5" y="69.752" fill="#000" font-family="sans-serif" font-size="14" font-weight="bold" lengthAdjust="spacing" textLength="10.438">…</text><text x="344.5" y="69.752" fill="#000" font-family="sans-serif" font-size="14" lengthAdjust="spacing" textLength="10">…</text><line style="stroke:#000;stroke-width:1" x1="339.5" x2="339.5" y1="53.219" y2="74.828"/><rect width="198" height="64.828" x="275.5" y="10" fill="none" rx="5" ry="5" style="stroke:#000;stroke-width:1.5"/><rect width="223" height="86.438" x="263" y="93.5" fill="#F1F1F1" rx="5" ry="5" style="stroke:#f1f1f1;stroke-width:1.5"/><text x="268" y="110.033" fill="#000" font-family="sans-serif" font-size="14" font-weight="bold" lengthAdjust="spacing" textLength="109">probe_param_1</text><text x="387" y="110.033" fill="#000" font-family="sans-serif" font-size="14" font-style="italic" lengthAdjust="spacing" textLength="69">Expression</text><line style="stroke:#000;stroke-width:1" x1="382" x2="382" y1="93.5" y2="115.109"/><line style="stroke:#000;stroke-width:1" x1="263" x2="486" y1="115.109" y2="115.109"/><text x="268" y="131.643" fill="#000" font-family="sans-serif" font-size="14" font-weight="bold" lengthAdjust="spacing" textLength="109">probe_param_2</text><text x="387" y="131.643" fill="#000" font-family="sans-serif" font-size="14" font-style="italic" lengthAdjust="spacing" textLength="69">Expression</text><line style="stroke:#000;stroke-width:1" x1="382" x2="382" y1="115.109" y2="136.719"/><line style="stroke:#000;stroke-width:1" x1="263" x2="486" y1="136.719" y2="136.719"/><text x="268" y="153.252" fill="#000" font-family="sans-serif" font-size="14" font-weight="bold" lengthAdjust="spacing" textLength="10.438">…</text><text x="387" y="153.252" fill="#000" font-family="sans-serif" font-size="14" lengthAdjust="spacing" textLength="10">…</text><line style="stroke:#000;stroke-width:1" x1="382" x2="382" y1="136.719" y2="158.328"/><line style="stroke:#000;stroke-width:1" x1="263" x2="486" y1="158.328" y2="158.328"/><text x="268" y="174.861" fill="#000" font-family="sans-serif" font-size="14" font-weight="bold" lengthAdjust="spacing" textLength="77">transform?</text><text x="387" y="174.861" fill="#000" font-family="sans-serif" font-size="14" font-style="italic" lengthAdjust="spacing" textLength="94">Data transform</text><line style="stroke:#000;stroke-width:1" x1="382" x2="382" y1="158.328" y2="179.938"/><rect width="223" height="86.438" x="263" y="93.5" fill="none" rx="5" ry="5" style="stroke:#000;stroke-width:1.5"/><path fill="none" d="M214,78.5 L227,78.5 C240.5234,78.5 254.551,77.0448 268.3333,74.7196" style="stroke:#000;stroke-width:1;stroke-dasharray:3,3"/><path fill="#000" d="M268.8843,77.7704 L270.6214,74.3064 L267.7823,71.6689 L275.9602,73.3421 L268.8843,77.7704" style="stroke:#000;stroke-width:1"/><ellipse cx="214" cy="78.5" fill="#000" rx="3" ry="3" style="stroke:#000;stroke-width:1"/><path fill="none" d="M214,99.5 L227,99.5 C236.3445,99.5 245.9249,100.2118 255.4959,101.438" style="stroke:#000;stroke-width:1;stroke-dasharray:3,3"/><path fill="#000" d="M255.0599,104.5056 L257.7966,101.765 L255.9318,98.3704 L263.1649,102.5279 L255.0599,104.5056" style="stroke:#000;stroke-width:1"/><ellipse cx="214" cy="99.5" fill="#000" rx="3" ry="3" style="stroke:#000;stroke-width:1"/></g></svg>