<svg xmlns="http://www.w3.org/2000/svg" xmlns:xlink="http://www.w3.org/1999/xlink" width="498" height="169" contentStyleType="text/css" preserveAspectRatio="none" style="width:498px;height:169px;background:#fff" version="1.1" viewBox="0 0 498 169" zoomAndPan="magnify"><g><rect width="214" height="86.438" x="10" y="19.5" fill="#F1F1F1" rx="5" ry="5" style="stroke:#f1f1f1;stroke-width:1.5"/><text x="15" y="36.033" fill="#000" font-family="sans-serif" font-size="14" font-weight="bold" lengthAdjust="spacing" textLength="13">id</text><text x="102" y="36.033" fill="#000" font-family="sans-serif" font-size="14" font-style="italic" lengthAdjust="spacing" textLength="56">Probe ID</text><line style="stroke:#000;stroke-width:1" x1="97" x2="97" y1="19.5" y2="41.109"/><line style="stroke:#000;stroke-width:1" x1="10" x2="224" y1="41.109" y2="41.109"/><text x="15" y="57.643" fill="#000" font-family="sans-serif" font-size="14" font-weight="bold" lengthAdjust="spacing" textLength="41">alias?</text><text x="102" y="57.643" fill="#000" font-family="sans-serif" font-size="14" font-style="italic" lengthAdjust="spacing" textLength="117">Alternative local ID</text><line style="stroke:#000;stroke-width:1" x1="97" x2="97" y1="41.109" y2="62.719"/><line style="stroke:#000;stroke-width:1" x1="10" x2="224" y1="62.719" y2="62.719"/><text x="15" y="79.252" fill="#000" font-family="sans-serif" font-size="14" font-weight="bold" lengthAdjust="spacing" textLength="60">params?</text><line style="stroke:#000;stroke-width:1" x1="97" x2="97" y1="62.719" y2="84.328"/><line style="stroke:#000;stroke-width:1" x1="10" x2="224" y1="84.328" y2="84.328"/><text x="15" y="100.861" fill="#000" font-family="sans-serif" font-size="14" font-weight="bold" lengthAdjust="spacing" textLength="77">transform?</text><line style="stroke:#000;stroke-width:1" x1="97" x2="97" y1="84.328" y2="105.938"/><rect width="214" height="86.438" x="10" y="19.5" fill="none" rx="5" ry="5" style="stroke:#000;stroke-width:1.5"/><rect width="225" height="64.828" x="261" y="10" fill="#F1F1F1" rx="5" ry="5" style="stroke:#f1f1f1;stroke-width:1.5"/><text x="266" y="26.533" fill="#000" font-family="sans-serif" font-size="14" font-weight="bold" lengthAdjust="spacing" textLength="59">param_1</text><text x="335" y="26.533" fill="#000" font-family="sans-serif" font-size="14" font-style="italic" lengthAdjust="spacing" textLength="146">Expression for param 1</text><line style="stroke:#000;stroke-width:1" x1="330" x2="330" y1="10" y2="31.609"/><line style="stroke:#000;stroke-width:1" x1="261" x2="486" y1="31.609" y2="31.609"/><text x="266" y="48.143" fill="#000" font-family="sans-serif" font-size="14" font-weight="bold" lengthAdjust="spacing" textLength="59">param_2</text><text x="335" y="48.143" fill="#000" font-family="sans-serif" font-size="14" font-style="italic" lengthAdjust="spacing" textLength="146">Expression for param 2</text><line style="stroke:#000;stroke-width:1" x1="330" x2="330" y1="31.609" y2="53.219"/><line style="stroke:#000;stroke-width:1" x1="261" x2="486" y1="53.219" y2="53.219"/><text x="266" y="69.752" fill="#000" font-family="sans-serif" font-size="14" font-weight="bold" lengthAdjust="spacing" textLength="10.438">…</text><text x="335" y="69.752" fill="#000" font-family="sans-serif" font-size="14" lengthAdjust="spacing" textLength="10">…</text><line style="stroke:#000;stroke-width:1" x1="330" x2="330" y1="53.219" y2="74.828"/><rect width="225" height="64.828" x="261" y="10" fill="none" rx="5" ry="5" style="stroke:#000;stroke-width:1.5"/><rect width="118" height="64.828" x="314.5" y="93" fill="#F1F1F1" rx="5" ry="5" style="stroke:#f1f1f1;stroke-width:1.5"/><text x="319.5" y="109.533" fill="#000" font-family="sans-serif" font-size="14" lengthAdjust="spacing" textLength="108">Transformation 1</text><line style="stroke:#000;stroke-width:1" x1="314.5" x2="432.5" y1="114.609" y2="114.609"/><text x="319.5" y="131.143" fill="#000" font-family="sans-serif" font-size="14" lengthAdjust="spacing" textLength="108">Transformation 2</text><line style="stroke:#000;stroke-width:1" x1="314.5" x2="432.5" y1="136.219" y2="136.219"/><text x="319.5" y="152.752" fill="#000" font-family="sans-serif" font-size="14" lengthAdjust="spacing" textLength="10">…</text><rect width="118" height="64.828" x="314.5" y="93" fill="none" rx="5" ry="5" style="stroke:#000;stroke-width:1.5"/><path fill="none" d="M212,73.5 L225,73.5 C234.3215,73.5 243.9045,72.9036 253.497,71.8763" style="stroke:#000;stroke-width:1;stroke-dasharray:3,3"/><path fill="#000" d="M253.8623,74.9524 L255.8041,71.6023 L253.1318,68.8002 L261.1873,70.9631 L253.8623,74.9524" style="stroke:#000;stroke-width:1"/><ellipse cx="212" cy="73.5" fill="#000" rx="3" ry="3" style="stroke:#000;stroke-width:1"/><path fill="none" d="M212,94.5 L225,94.5 C252.358,94.5 281.968,99.6372 307.4629,105.729" style="stroke:#000;stroke-width:1;stroke-dasharray:3,3"/><path fill="#000" d="M306.7317,108.6985 L309.69,106.2774 L308.1941,102.7596 L314.8865,107.5569 L306.7317,108.6985" style="stroke:#000;stroke-width:1"/><ellipse cx="212" cy="94.5" fill="#000" rx="3" ry="3" style="stroke:#000;stroke-width:1"/></g></svg>