<svg xmlns="http://www.w3.org/2000/svg" xmlns:xlink="http://www.w3.org/1999/xlink" width="603" height="350" contentStyleType="text/css" preserveAspectRatio="none" style="width:603px;height:350px;background:#fff" version="1.1" viewBox="0 0 603 350" zoomAndPan="magnify"><g><rect width="346" height="280.922" x="10" y="58" fill="#F1F1F1" rx="5" ry="5" style="stroke:#f1f1f1;stroke-width:1.5"/><text x="15" y="74.533" fill="#000" font-family="sans-serif" font-size="14" font-weight="bold" lengthAdjust="spacing" textLength="63">itemType</text><text x="122" y="74.533" fill="#000" font-family="sans-serif" font-size="14" font-weight="bold" lengthAdjust="spacing" textLength="67">definition</text><text x="193" y="74.533" fill="#000" font-family="sans-serif" font-size="14" lengthAdjust="spacing" textLength="3">|</text><text x="200" y="74.533" fill="#000" font-family="sans-serif" font-size="14" font-weight="bold" lengthAdjust="spacing" textLength="61">override</text><line style="stroke:#000;stroke-width:1" x1="117" x2="117" y1="58" y2="79.609"/><line style="stroke:#000;stroke-width:1" x1="10" x2="356" y1="79.609" y2="79.609"/><text x="15" y="96.143" fill="#000" font-family="sans-serif" font-size="14" font-weight="bold" lengthAdjust="spacing" textLength="13">id</text><text x="122" y="96.143" fill="#000" font-family="sans-serif" font-size="14" font-style="italic" lengthAdjust="spacing" textLength="124">Check ID(s) or tags</text><line style="stroke:#000;stroke-width:1" x1="117" x2="117" y1="79.609" y2="101.219"/><line style="stroke:#000;stroke-width:1" x1="10" x2="356" y1="101.219" y2="101.219"/><text x="15" y="117.752" fill="#000" font-family="sans-serif" font-size="14" font-weight="bold" lengthAdjust="spacing" textLength="51">target?</text><line style="stroke:#000;stroke-width:1" x1="117" x2="117" y1="101.219" y2="122.828"/><line style="stroke:#000;stroke-width:1" x1="10" x2="356" y1="122.828" y2="122.828"/><text x="15" y="139.361" fill="#000" font-family="sans-serif" font-size="14" font-weight="bold" lengthAdjust="spacing" textLength="88">targetFilter?</text><line style="stroke:#000;stroke-width:1" x1="117" x2="117" y1="122.828" y2="144.438"/><line style="stroke:#000;stroke-width:1" x1="10" x2="356" y1="144.438" y2="144.438"/><text x="15" y="160.971" fill="#000" font-family="sans-serif" font-size="14" font-weight="bold" lengthAdjust="spacing" textLength="39">tags?</text><line style="stroke:#000;stroke-width:1" x1="117" x2="117" y1="144.438" y2="166.047"/><line style="stroke:#000;stroke-width:1" x1="10" x2="356" y1="166.047" y2="166.047"/><text x="15" y="182.58" fill="#000" font-family="sans-serif" font-size="14" font-weight="bold" lengthAdjust="spacing" textLength="97">displayName?</text><text x="122" y="182.58" fill="#000" font-family="sans-serif" font-size="14" font-style="italic" lengthAdjust="spacing" textLength="144">Short descriptive name</text><line style="stroke:#000;stroke-width:1" x1="117" x2="117" y1="166.047" y2="187.656"/><line style="stroke:#000;stroke-width:1" x1="10" x2="356" y1="187.656" y2="187.656"/><text x="15" y="204.19" fill="#000" font-family="sans-serif" font-size="14" font-weight="bold" lengthAdjust="spacing" textLength="89">description?</text><text x="122" y="204.19" fill="#000" font-family="sans-serif" font-size="14" font-style="italic" lengthAdjust="spacing" textLength="105">Long description</text><line style="stroke:#000;stroke-width:1" x1="117" x2="117" y1="187.656" y2="209.266"/><line style="stroke:#000;stroke-width:1" x1="10" x2="356" y1="209.266" y2="209.266"/><text x="15" y="225.799" fill="#000" font-family="sans-serif" font-size="14" font-weight="bold" lengthAdjust="spacing" textLength="72">message?</text><text x="122" y="225.799" fill="#000" font-family="sans-serif" font-size="14" font-style="italic" lengthAdjust="spacing" textLength="116">Message template</text><line style="stroke:#000;stroke-width:1" x1="117" x2="117" y1="209.266" y2="230.875"/><line style="stroke:#000;stroke-width:1" x1="10" x2="356" y1="230.875" y2="230.875"/><text x="15" y="247.408" fill="#000" font-family="sans-serif" font-size="14" font-weight="bold" lengthAdjust="spacing" textLength="44">level?</text><text x="122" y="247.408" fill="#000" font-family="sans-serif" font-size="14" font-weight="bold" lengthAdjust="spacing" textLength="80">Information</text><text x="206" y="247.408" fill="#000" font-family="sans-serif" font-size="14" lengthAdjust="spacing" textLength="3">|</text><text x="213" y="247.408" fill="#000" font-family="sans-serif" font-size="14" font-weight="bold" lengthAdjust="spacing" textLength="28">Low</text><text x="245" y="247.408" fill="#000" font-family="sans-serif" font-size="14" lengthAdjust="spacing" textLength="3">|</text><text x="252" y="247.408" fill="#000" font-family="sans-serif" font-size="14" font-weight="bold" lengthAdjust="spacing" textLength="56">Medium</text><text x="312" y="247.408" fill="#000" font-family="sans-serif" font-size="14" lengthAdjust="spacing" textLength="3">|</text><text x="319" y="247.408" fill="#000" font-family="sans-serif" font-size="14" font-weight="bold" lengthAdjust="spacing" textLength="32">High</text><line style="stroke:#000;stroke-width:1" x1="117" x2="117" y1="230.875" y2="252.484"/><line style="stroke:#000;stroke-width:1" x1="10" x2="356" y1="252.484" y2="252.484"/><text x="15" y="269.018" fill="#000" font-family="sans-serif" font-size="14" font-weight="bold" lengthAdjust="spacing" textLength="69">helpLink?</text><text x="122" y="269.018" fill="#000" font-family="sans-serif" font-size="14" font-style="italic" lengthAdjust="spacing" textLength="138">Hyperlink to an article</text><line style="stroke:#000;stroke-width:1" x1="117" x2="117" y1="252.484" y2="274.094"/><line style="stroke:#000;stroke-width:1" x1="10" x2="356" y1="274.094" y2="274.094"/><text x="15" y="290.627" fill="#000" font-family="sans-serif" font-size="14" font-weight="bold" lengthAdjust="spacing" textLength="59">probes?</text><line style="stroke:#000;stroke-width:1" x1="117" x2="117" y1="274.094" y2="295.703"/><line style="stroke:#000;stroke-width:1" x1="10" x2="356" y1="295.703" y2="295.703"/><text x="15" y="312.236" fill="#000" font-family="sans-serif" font-size="14" font-weight="bold" lengthAdjust="spacing" textLength="75">condition?</text><text x="122" y="312.236" fill="#000" font-family="sans-serif" font-size="14" font-style="italic" lengthAdjust="spacing" textLength="132">Condition expression</text><line style="stroke:#000;stroke-width:1" x1="117" x2="117" y1="295.703" y2="317.313"/><line style="stroke:#000;stroke-width:1" x1="10" x2="356" y1="317.313" y2="317.313"/><text x="15" y="333.846" fill="#000" font-family="sans-serif" font-size="14" font-style="italic" font-weight="bold" lengthAdjust="spacing" textLength="81">parameter 1</text><text x="122" y="333.846" fill="#000" font-family="sans-serif" font-size="14" font-style="italic" lengthAdjust="spacing" textLength="89">param 1 value</text><line style="stroke:#000;stroke-width:1" x1="117" x2="117" y1="317.313" y2="338.922"/><rect width="346" height="280.922" x="10" y="58" fill="none" rx="5" ry="5" style="stroke:#000;stroke-width:1.5"/><rect width="198" height="64.828" x="393" y="10" fill="#F1F1F1" rx="5" ry="5" style="stroke:#f1f1f1;stroke-width:1.5"/><text x="398" y="26.533" fill="#000" font-family="sans-serif" font-size="14" font-weight="bold" lengthAdjust="spacing" textLength="30">type</text><text x="462" y="26.533" fill="#000" font-family="sans-serif" font-size="14" font-weight="bold" lengthAdjust="spacing" textLength="48">Server</text><text x="514" y="26.533" fill="#000" font-family="sans-serif" font-size="14" lengthAdjust="spacing" textLength="3">|</text><text x="521" y="26.533" fill="#000" font-family="sans-serif" font-size="14" font-weight="bold" lengthAdjust="spacing" textLength="65">Database</text><line style="stroke:#000;stroke-width:1" x1="457" x2="457" y1="10" y2="31.609"/><line style="stroke:#000;stroke-width:1" x1="393" x2="591" y1="31.609" y2="31.609"/><text x="398" y="48.143" fill="#000" font-family="sans-serif" font-size="14" font-weight="bold" lengthAdjust="spacing" textLength="54">version</text><text x="462" y="48.143" fill="#000" font-family="sans-serif" font-size="14" font-style="italic" lengthAdjust="spacing" textLength="97">Version pattern</text><line style="stroke:#000;stroke-width:1" x1="457" x2="457" y1="31.609" y2="53.219"/><line style="stroke:#000;stroke-width:1" x1="393" x2="591" y1="53.219" y2="53.219"/><text x="398" y="69.752" fill="#000" font-family="sans-serif" font-size="14" font-weight="bold" lengthAdjust="spacing" textLength="10.438">…</text><text x="462" y="69.752" fill="#000" font-family="sans-serif" font-size="14" lengthAdjust="spacing" textLength="10">…</text><line style="stroke:#000;stroke-width:1" x1="457" x2="457" y1="53.219" y2="74.828"/><rect width="198" height="64.828" x="393" y="10" fill="none" rx="5" ry="5" style="stroke:#000;stroke-width:1.5"/><rect width="198" height="64.828" x="393" y="93" fill="#F1F1F1" rx="5" ry="5" style="stroke:#f1f1f1;stroke-width:1.5"/><text x="398" y="109.533" fill="#000" font-family="sans-serif" font-size="14" font-weight="bold" lengthAdjust="spacing" textLength="30">type</text><text x="462" y="109.533" fill="#000" font-family="sans-serif" font-size="14" font-weight="bold" lengthAdjust="spacing" textLength="48">Server</text><text x="514" y="109.533" fill="#000" font-family="sans-serif" font-size="14" lengthAdjust="spacing" textLength="3">|</text><text x="521" y="109.533" fill="#000" font-family="sans-serif" font-size="14" font-weight="bold" lengthAdjust="spacing" textLength="65">Database</text><line style="stroke:#000;stroke-width:1" x1="457" x2="457" y1="93" y2="114.609"/><line style="stroke:#000;stroke-width:1" x1="393" x2="591" y1="114.609" y2="114.609"/><text x="398" y="131.143" fill="#000" font-family="sans-serif" font-size="14" font-weight="bold" lengthAdjust="spacing" textLength="54">version</text><text x="462" y="131.143" fill="#000" font-family="sans-serif" font-size="14" font-style="italic" lengthAdjust="spacing" textLength="97">Version pattern</text><line style="stroke:#000;stroke-width:1" x1="457" x2="457" y1="114.609" y2="136.219"/><line style="stroke:#000;stroke-width:1" x1="393" x2="591" y1="136.219" y2="136.219"/><text x="398" y="152.752" fill="#000" font-family="sans-serif" font-size="14" font-weight="bold" lengthAdjust="spacing" textLength="10.438">…</text><text x="462" y="152.752" fill="#000" font-family="sans-serif" font-size="14" lengthAdjust="spacing" textLength="10">…</text><line style="stroke:#000;stroke-width:1" x1="457" x2="457" y1="136.219" y2="157.828"/><rect width="198" height="64.828" x="393" y="93" fill="none" rx="5" ry="5" style="stroke:#000;stroke-width:1.5"/><rect width="47" height="64.828" x="468.5" y="176" fill="#F1F1F1" rx="5" ry="5" style="stroke:#f1f1f1;stroke-width:1.5"/><text x="473.5" y="192.533" fill="#000" font-family="sans-serif" font-size="14" lengthAdjust="spacing" textLength="37">Tag 1</text><line style="stroke:#000;stroke-width:1" x1="468.5" x2="515.5" y1="197.609" y2="197.609"/><text x="473.5" y="214.143" fill="#000" font-family="sans-serif" font-size="14" lengthAdjust="spacing" textLength="37">Tag 2</text><line style="stroke:#000;stroke-width:1" x1="468.5" x2="515.5" y1="219.219" y2="219.219"/><text x="473.5" y="235.752" fill="#000" font-family="sans-serif" font-size="14" lengthAdjust="spacing" textLength="10">…</text><rect width="47" height="64.828" x="468.5" y="176" fill="none" rx="5" ry="5" style="stroke:#000;stroke-width:1.5"/><rect width="81" height="64.828" x="451.5" y="259" fill="#F1F1F1" rx="5" ry="5" style="stroke:#f1f1f1;stroke-width:1.5"/><text x="456.5" y="275.533" fill="#000" font-family="sans-serif" font-size="14" font-style="italic" lengthAdjust="spacing" textLength="71">Probe ref 1</text><line style="stroke:#000;stroke-width:1" x1="451.5" x2="532.5" y1="280.609" y2="280.609"/><text x="456.5" y="297.143" fill="#000" font-family="sans-serif" font-size="14" font-style="italic" lengthAdjust="spacing" textLength="71">Probe ref 2</text><line style="stroke:#000;stroke-width:1" x1="451.5" x2="532.5" y1="302.219" y2="302.219"/><text x="456.5" y="318.752" fill="#000" font-family="sans-serif" font-size="14" lengthAdjust="spacing" textLength="10">…</text><rect width="81" height="64.828" x="451.5" y="259" fill="none" rx="5" ry="5" style="stroke:#000;stroke-width:1.5"/><path fill="none" d="M344,111.5 L357,111.5 C377.2698,111.5 375.4879,93.7074 393,83.5 C395.8355,81.8472 398.7504,80.2268 401.72,78.6423" style="stroke:#000;stroke-width:1;stroke-dasharray:3,3"/><path fill="#000" d="M403.1723,81.4491 L403.8252,77.553 L400.2677,75.8354 L408.7371,75.0115 L403.1723,81.4491" style="stroke:#000;stroke-width:1"/><ellipse cx="344" cy="111.5" fill="#000" rx="3" ry="3" style="stroke:#000;stroke-width:1"/><path fill="none" d="M344,132.5 L357,132.5 C366.3173,132.5 375.9928,132.3304 385.6891,132.044" style="stroke:#000;stroke-width:1;stroke-dasharray:3,3"/><path fill="#000" d="M385.7906,135.1537 L388.0214,131.9679 L385.5876,128.9343 L393.4635,131.7903 L385.7906,135.1537" style="stroke:#000;stroke-width:1"/><ellipse cx="344" cy="132.5" fill="#000" rx="3" ry="3" style="stroke:#000;stroke-width:1"/><path fill="none" d="M344,154.5 L357,154.5 C362.5141,154.5 423.5525,179.8244 461.4816,195.7882" style="stroke:#000;stroke-width:1;stroke-dasharray:3,3"/><path fill="#000" d="M460.2585,198.69 L463.6579,196.7055 L462.7046,192.8865 L468.736,198.8459 L460.2585,198.69" style="stroke:#000;stroke-width:1"/><ellipse cx="344" cy="154.5" fill="#000" rx="3" ry="3" style="stroke:#000;stroke-width:1"/><path fill="none" d="M344,284.5 L357,284.5 C385.9246,284.5 418.301,286.1345 444.0394,287.8238" style="stroke:#000;stroke-width:1;stroke-dasharray:3,3"/><path fill="#000" d="M443.8296,290.9292 L446.3684,287.9811 L444.2491,284.7184 L451.8029,288.3481 L443.8296,290.9292" style="stroke:#000;stroke-width:1"/><ellipse cx="344" cy="284.5" fill="#000" rx="3" ry="3" style="stroke:#000;stroke-width:1"/></g></svg>